

Complete name                    : D:\TOORENT FOR UPLOAD\Crickets Greatest Wonders And Blunders 2010 by RoYStaR\Crickets Greatest Wonders And Blunders 2010 by RoYStaR.avi
Format                           : AVI
Format/Info                      : Audio Video Interleave
File size                        : 699 MiB
Duration                         : 1h 29mn
Overall bit rate                 : 1 097 Kbps

Video
Format                           : MPEG-4 Visual
Duration                         : 1h 29mn
Bit rate                         : 939 Kbps
Width                            : 576 pixels
Height                           : 320 pixels
Display aspect ratio             : 16:9
Frame rate                       : 25.000 fps
Color space                      : YUV
Chroma subsampling               : 4:2:0
Bit depth                        : 8 bits
Scan type                        : Progressive
Compression mode                 : Lossy
Bits/(Pixel*Frame)               : 0.204
Stream size                      : 599 MiB (86%)

Audio
ID                               : 1
Format                           : MPEG Audio
Format version                   : Version 1
Format profile                   : Layer 3
Codec ID                         : 55
Codec ID/Hint                    : MP3
Duration                         : 1h 29mn
Bit rate mode                    : Variable
Bit rate                         : 145 Kbps
Channel(s)                       : 2 channels
Sampling rate                    : 48.0 KHz
Compression mode                 : Lossy
Stream size                      : 92.4 MiB (13%)
